<svg width="21" height="20" viewBox="0 0 21 20" fill="none" xmlns="http://www.w3.org/2000/svg">
<path d="M10.29 0C8.36168 0 6.47661 0.571828 4.87323 1.64317C3.26985 2.71451 2.02017 4.23726 1.28222 6.01884C0.544264 7.80042 0.351181 9.76082 0.727387 11.6521C1.10359 13.5434 2.03219 15.2807 3.39575 16.6443C4.75931 18.0079 6.4966 18.9365 8.38791 19.3127C10.2792 19.6889 12.2396 19.4958 14.0212 18.7578C15.8028 18.0199 17.3255 16.7702 18.3969 15.1668C19.4682 13.5634 20.04 11.6784 20.04 9.75C20.0371 7.16505 19.0089 4.68683 17.181 2.859C15.3532 1.03116 12.875 0.00297748 10.29 0ZM18.54 9.75C18.5407 10.5108 18.4356 11.2681 18.2279 12H14.6175C14.8475 10.5088 14.8475 8.99118 14.6175 7.5H18.2279C18.4356 8.23192 18.5407 8.98916 18.54 9.75ZM7.85254 13.5H12.7275C12.2473 15.0737 11.4135 16.5167 10.29 17.7188C9.16699 16.5164 8.3333 15.0735 7.85254 13.5ZM7.48692 12C7.22943 10.5111 7.22943 8.98895 7.48692 7.5H13.1007C13.3582 8.98895 13.3582 10.5111 13.1007 12H7.48692ZM2.04004 9.75C2.03939 8.98916 2.14446 8.23192 2.35223 7.5H5.96254C5.73254 8.99118 5.73254 10.5088 5.96254 12H2.35223C2.14446 11.2681 2.03939 10.5108 2.04004 9.75ZM12.7275 6H7.85254C8.33281 4.42632 9.16656 2.9833 10.29 1.78125C11.4131 2.98361 12.2468 4.42653 12.7275 6ZM17.6335 6H14.2941C13.8732 4.45585 13.1639 3.00532 12.2035 1.725C13.3638 2.00375 14.4502 2.5301 15.3881 3.26799C16.326 4.00588 17.0932 4.93784 17.6372 6H17.6335ZM8.37661 1.725C7.41623 3.00532 6.70687 4.45585 6.28598 6H2.94286C3.48686 4.93784 4.25411 4.00588 5.192 3.26799C6.12989 2.5301 7.21625 2.00375 8.37661 1.725ZM2.94286 13.5H6.28598C6.70687 15.0441 7.41623 16.4947 8.37661 17.775C7.21625 17.4963 6.12989 16.9699 5.192 16.232C4.25411 15.4941 3.48686 14.5622 2.94286 13.5ZM12.2035 17.775C13.1639 16.4947 13.8732 15.0441 14.2941 13.5H17.6372C17.0932 14.5622 16.326 15.4941 15.3881 16.232C14.4502 16.9699 13.3638 17.4963 12.2035 17.775Z" fill="#01A299"/>
</svg>
