<svg width="29" height="28" viewBox="0 0 29 28" fill="none" xmlns="http://www.w3.org/2000/svg">
<path fill-rule="evenodd" clip-rule="evenodd" d="M8.05095 3.47826C8.05095 3.21412 8.26548 3 8.53011 3H9.48845C9.75308 3 9.96761 3.21412 9.96761 3.47826V5.86957H19.551V3.47826C19.551 3.21412 19.7655 3 20.0301 3H20.9885C21.2531 3 21.4676 3.21412 21.4676 3.47826V5.86957H24.3426C25.4012 5.86957 26.2593 6.72606 26.2593 7.78261V21C26.2593 19.4019 25.5096 17.9789 24.3426 17.0636V12.5652H5.17595V22.1304C5.17595 22.6587 5.60501 23.087 6.13428 23.087H16.7143C17.0636 23.8464 17.5976 24.5032 18.2588 25H5.17595C4.1174 25 3.25928 24.1435 3.25928 23.087V7.78261C3.25928 6.72606 4.1174 5.86957 5.17595 5.86957H8.05095V3.47826ZM9.96761 7.78261H19.551V8.73913C19.551 9.00327 19.7655 9.21739 20.0301 9.21739H20.9885C21.2531 9.21739 21.4676 9.00327 21.4676 8.73913V7.78261H23.3843C23.9136 7.78261 24.3426 8.21086 24.3426 8.73913V10.6522H5.17595V8.73913C5.17595 8.21086 5.60501 7.78261 6.13428 7.78261H8.05095V8.73913C8.05095 9.00327 8.26548 9.21739 8.53011 9.21739H9.48845C9.75308 9.21739 9.96761 9.00327 9.96761 8.73913V7.78261Z" fill="#01A299"/>
<path d="M24.2598 25C25.474 24.0878 26.2593 22.6356 26.2593 21V23.087C26.2593 24.1435 25.4012 25 24.3426 25H24.2598Z" fill="#01A299"/>
<path fill-rule="evenodd" clip-rule="evenodd" d="M21.2593 16.75C18.9121 16.75 17.0093 18.6528 17.0093 21C17.0093 23.3472 18.9121 25.25 21.2593 25.25C23.6065 25.25 25.5093 23.3472 25.5093 21C25.5093 18.6528 23.6065 16.75 21.2593 16.75ZM15.5093 21C15.5093 17.8244 18.0837 15.25 21.2593 15.25C24.4349 15.25 27.0093 17.8244 27.0093 21C27.0093 24.1756 24.4349 26.75 21.2593 26.75C18.0837 26.75 15.5093 24.1756 15.5093 21Z" fill="#01A299"/>
<path d="M18.7598 20.3793C18.955 20.1841 19.2716 20.1841 19.4669 20.3793L20.8807 21.7931C21.0759 21.9884 21.0759 22.305 20.8807 22.5002C20.6854 22.6955 20.3688 22.6955 20.1736 22.5002L18.7598 21.0864C18.5645 20.8912 18.5645 20.5746 18.7598 20.3793Z" fill="#01A299"/>
<path d="M23.5846 19.0976C23.3893 18.9023 23.0728 18.9023 22.8775 19.0976L20.1821 21.793C19.9868 21.9883 19.9868 22.3049 20.1821 22.5001C20.3773 22.6954 20.6939 22.6954 20.8892 22.5001L23.5846 19.8047C23.7799 19.6094 23.7799 19.2929 23.5846 19.0976Z" fill="#01A299"/>
</svg>
