<svg width="25" height="24" viewBox="0 0 25 24" fill="none" xmlns="http://www.w3.org/2000/svg">
<path d="M20.2593 3H18.0093V2.25C18.0093 2.05109 17.9303 1.86032 17.7896 1.71967C17.649 1.57902 17.4582 1.5 17.2593 1.5C17.0604 1.5 16.8696 1.57902 16.7289 1.71967C16.5883 1.86032 16.5093 2.05109 16.5093 2.25V3H9.00928V2.25C9.00928 2.05109 8.93026 1.86032 8.78961 1.71967C8.64895 1.57902 8.45819 1.5 8.25928 1.5C8.06037 1.5 7.8696 1.57902 7.72895 1.71967C7.5883 1.86032 7.50928 2.05109 7.50928 2.25V3H5.25928C4.86145 3 4.47992 3.15804 4.19862 3.43934C3.91731 3.72064 3.75928 4.10218 3.75928 4.5V19.5C3.75928 19.8978 3.91731 20.2794 4.19862 20.5607C4.47992 20.842 4.86145 21 5.25928 21H20.2593C20.6571 21 21.0386 20.842 21.3199 20.5607C21.6012 20.2794 21.7593 19.8978 21.7593 19.5V4.5C21.7593 4.10218 21.6012 3.72064 21.3199 3.43934C21.0386 3.15804 20.6571 3 20.2593 3ZM7.50928 4.5V5.25C7.50928 5.44891 7.5883 5.63968 7.72895 5.78033C7.8696 5.92098 8.06037 6 8.25928 6C8.45819 6 8.64895 5.92098 8.78961 5.78033C8.93026 5.63968 9.00928 5.44891 9.00928 5.25V4.5H16.5093V5.25C16.5093 5.44891 16.5883 5.63968 16.7289 5.78033C16.8696 5.92098 17.0604 6 17.2593 6C17.4582 6 17.649 5.92098 17.7896 5.78033C17.9303 5.63968 18.0093 5.44891 18.0093 5.25V4.5H20.2593V7.5H5.25928V4.5H7.50928ZM20.2593 19.5H5.25928V9H20.2593V19.5ZM13.8843 12.375C13.8843 12.5975 13.8183 12.815 13.6947 13C13.5711 13.185 13.3954 13.3292 13.1898 13.4144C12.9842 13.4995 12.758 13.5218 12.5398 13.4784C12.3216 13.435 12.1211 13.3278 11.9638 13.1705C11.8064 13.0132 11.6993 12.8127 11.6559 12.5945C11.6125 12.3762 11.6348 12.15 11.7199 11.9445C11.8051 11.7389 11.9493 11.5632 12.1343 11.4396C12.3193 11.316 12.5368 11.25 12.7593 11.25C13.0576 11.25 13.3438 11.3685 13.5548 11.5795C13.7657 11.7905 13.8843 12.0766 13.8843 12.375ZM18.0093 12.375C18.0093 12.5975 17.9433 12.815 17.8197 13C17.6961 13.185 17.5204 13.3292 17.3148 13.4144C17.1092 13.4995 16.883 13.5218 16.6648 13.4784C16.4466 13.435 16.2461 13.3278 16.0888 13.1705C15.9314 13.0132 15.8243 12.8127 15.7809 12.5945C15.7375 12.3762 15.7598 12.15 15.8449 11.9445C15.9301 11.7389 16.0743 11.5632 16.2593 11.4396C16.4443 11.316 16.6618 11.25 16.8843 11.25C17.1826 11.25 17.4688 11.3685 17.6798 11.5795C17.8907 11.7905 18.0093 12.0766 18.0093 12.375ZM9.75928 16.125C9.75928 16.3475 9.6933 16.565 9.56968 16.75C9.44606 16.935 9.27036 17.0792 9.0648 17.1644C8.85923 17.2495 8.63303 17.2718 8.4148 17.2284C8.19657 17.185 7.99612 17.0778 7.83878 16.9205C7.68145 16.7632 7.5743 16.5627 7.53089 16.3445C7.48749 16.1262 7.50976 15.9 7.59491 15.6945C7.68006 15.4889 7.82426 15.3132 8.00926 15.1896C8.19427 15.066 8.41177 15 8.63428 15C8.93265 15 9.21879 15.1185 9.42977 15.3295C9.64075 15.5405 9.75928 15.8266 9.75928 16.125ZM13.8843 16.125C13.8843 16.3475 13.8183 16.565 13.6947 16.75C13.5711 16.935 13.3954 17.0792 13.1898 17.1644C12.9842 17.2495 12.758 17.2718 12.5398 17.2284C12.3216 17.185 12.1211 17.0778 11.9638 16.9205C11.8064 16.7632 11.6993 16.5627 11.6559 16.3445C11.6125 16.1262 11.6348 15.9 11.7199 15.6945C11.8051 15.4889 11.9493 15.3132 12.1343 15.1896C12.3193 15.066 12.5368 15 12.7593 15C13.0576 15 13.3438 15.1185 13.5548 15.3295C13.7657 15.5405 13.8843 15.8266 13.8843 16.125ZM18.0093 16.125C18.0093 16.3475 17.9433 16.565 17.8197 16.75C17.6961 16.935 17.5204 17.0792 17.3148 17.1644C17.1092 17.2495 16.883 17.2718 16.6648 17.2284C16.4466 17.185 16.2461 17.0778 16.0888 16.9205C15.9314 16.7632 15.8243 16.5627 15.7809 16.3445C15.7375 16.1262 15.7598 15.9 15.8449 15.6945C15.9301 15.4889 16.0743 15.3132 16.2593 15.1896C16.4443 15.066 16.6618 15 16.8843 15C17.1826 15 17.4688 15.1185 17.6798 15.3295C17.8907 15.5405 18.0093 15.8266 18.0093 16.125Z" fill="#01A299"/>
</svg>
