<svg width="29" height="28" viewBox="0 0 29 28" fill="none" xmlns="http://www.w3.org/2000/svg">
<path d="M26.8273 2.31693L25.9741 1.4637C25.9512 1.44084 25.9241 1.42271 25.8942 1.41034C25.8644 1.39797 25.8324 1.3916 25.8001 1.3916C25.7677 1.3916 25.7357 1.39797 25.7059 1.41034C25.676 1.42271 25.6489 1.44084 25.626 1.4637L24.7728 2.31693C24.7384 2.35135 24.7149 2.39521 24.7054 2.44295C24.6959 2.4907 24.7008 2.54019 24.7194 2.58516C24.738 2.63014 24.7696 2.66858 24.8101 2.69563C24.8505 2.72268 24.8981 2.73711 24.9468 2.73712H25.4719V5.2134C25.4719 5.30043 25.5065 5.38389 25.568 5.44542C25.6296 5.50696 25.713 5.54153 25.8001 5.54153C25.8871 5.54153 25.9705 5.50696 26.0321 5.44542C26.0936 5.38389 26.1282 5.30043 26.1282 5.2134V2.73712H26.6533C26.702 2.73712 26.7496 2.72268 26.7901 2.69563C26.8305 2.66859 26.8621 2.63015 26.8807 2.58517C26.8993 2.54019 26.9042 2.4907 26.8947 2.44296C26.8852 2.39521 26.8618 2.35135 26.8273 2.31693Z" fill="#01A299"/>
<path d="M11.5731 20.0667C11.4841 19.6792 11.2778 19.3286 10.9824 19.0626L8.6676 16.9725C8.61295 16.9225 8.54852 16.8844 8.47837 16.8605C8.40823 16.8366 8.33391 16.8276 8.26009 16.8339C8.18627 16.8402 8.11456 16.8617 8.04948 16.8972C7.98441 16.9326 7.92738 16.9811 7.88201 17.0397C7.54162 17.4757 7.4377 17.9593 7.58934 18.4012C7.68416 18.6775 7.86884 18.9665 8.06708 19.2238L6.36691 18.7161C6.26826 18.6865 6.17792 18.6342 6.10311 18.5634C6.02829 18.4926 5.97109 18.4052 5.93606 18.3084L5.70671 17.6671C5.58639 17.3337 5.36633 17.0455 5.07644 16.8416C4.78656 16.6377 4.44091 16.5279 4.08649 16.5273H2.50412C2.38538 16.5273 2.26821 16.5546 2.16163 16.6069C2.05504 16.6592 1.96186 16.7353 1.88925 16.8293C1.81664 16.9232 1.76653 17.0326 1.74277 17.1489C1.71901 17.2653 1.72222 17.3855 1.75217 17.5004L2.42087 20.1273C2.56634 20.715 2.72155 21.1897 3.27399 21.5056L7.27165 23.7915C7.4166 23.8748 7.5374 23.9944 7.6222 24.1385C7.707 24.2825 7.75289 24.4462 7.75537 24.6134L7.76963 25.7482C7.76966 25.7502 7.76969 25.7522 7.76976 25.7542C7.76966 25.7574 7.76961 25.7607 7.76961 25.7639C7.76961 26.6583 8.8926 27.359 10.3262 27.359C11.4587 27.359 12.4395 26.9134 12.7666 26.2504C12.8712 26.0335 12.8978 25.7871 12.842 25.5529L11.5731 20.0667ZM12.2272 25.9841C12.0376 26.3684 11.3238 26.7574 10.3262 26.7574C9.28473 26.7574 8.37117 26.2931 8.37117 25.7639C8.37117 25.7607 8.37112 25.7575 8.37102 25.7542C8.37117 25.7497 8.3712 25.7452 8.37115 25.7407L8.35689 24.6058C8.35286 24.3339 8.27823 24.0678 8.14033 23.8335C8.00243 23.5992 7.80598 23.4048 7.57028 23.2693L3.57262 20.9834C3.25157 20.7998 3.14227 20.538 3.00436 19.9808L2.33443 17.3493C2.32757 17.3233 2.32676 17.2961 2.33207 17.2697C2.33738 17.2434 2.34867 17.2186 2.36507 17.1973C2.38146 17.1761 2.40253 17.1588 2.42664 17.1469C2.45075 17.1351 2.47726 17.1289 2.50413 17.1289H2.68227C2.68413 17.1467 2.68756 17.1643 2.69254 17.1815L3.57178 20.168C3.60288 20.2711 3.65483 20.3667 3.72442 20.4488C3.79401 20.531 3.87975 20.598 3.97631 20.6456L4.74965 21.0256C4.82125 21.0608 4.90389 21.0661 4.9794 21.0404C5.0549 21.0146 5.11709 20.9599 5.15227 20.8883C5.18746 20.8167 5.19276 20.7341 5.16701 20.6586C5.14126 20.5831 5.08657 20.5209 5.01497 20.4857L4.24163 20.1057C4.21947 20.0948 4.19977 20.0795 4.18374 20.0608C4.1677 20.042 4.15568 20.0202 4.14841 19.9966L3.30413 17.1289H3.78892L4.39696 19.4107C4.42688 19.5194 4.47994 19.6203 4.5525 19.7066C4.62506 19.7929 4.71542 19.8624 4.81737 19.9105L5.61611 20.2877C5.68824 20.3218 5.77096 20.3258 5.84606 20.2989C5.92115 20.2719 5.98248 20.2163 6.01654 20.1441C6.05061 20.072 6.05462 19.9893 6.0277 19.9142C6.00077 19.8391 5.94512 19.7778 5.87298 19.7437L5.07422 19.3665C5.05097 19.3556 5.03031 19.3399 5.01364 19.3204C4.99697 19.3009 4.98466 19.278 4.97756 19.2533L4.42556 17.1818C4.58949 17.2341 4.73922 17.3233 4.86316 17.4427C4.98711 17.562 5.08196 17.7082 5.14039 17.8701L5.36977 18.5113C5.43678 18.6969 5.5463 18.8642 5.68957 18.9999C5.83283 19.1355 6.00586 19.2358 6.19481 19.2926L8.93965 20.1122C9.00503 20.1317 9.0751 20.1285 9.13837 20.1029C9.20164 20.0774 9.25434 20.0311 9.28783 19.9716C9.32131 19.9122 9.33359 19.8431 9.32265 19.7758C9.3117 19.7084 9.27818 19.6468 9.22759 19.601C8.98932 19.3852 8.33272 18.714 8.15832 18.2059C8.06121 17.9229 8.18065 17.6549 8.31523 17.4649L10.5792 19.5091C10.7831 19.6927 10.9255 19.9347 10.987 20.2022L12.2559 25.6885C12.2805 25.7874 12.2704 25.8918 12.2272 25.9841Z" fill="#01A299"/>
<path d="M23.9026 16.5274H22.3202C21.9657 16.528 21.62 16.6377 21.3301 16.8417C21.0402 17.0457 20.8202 17.334 20.6999 17.6675L20.4707 18.3081C20.4357 18.405 20.3785 18.4924 20.3037 18.5633C20.2288 18.6341 20.1384 18.6865 20.0397 18.7162L18.3396 19.2238C18.5378 18.9665 18.7225 18.6775 18.8173 18.4012C18.969 17.9593 18.865 17.4758 18.5246 17.0396C18.4793 16.9811 18.4222 16.9326 18.3572 16.8972C18.2921 16.8617 18.2204 16.8402 18.1466 16.8339C18.0727 16.8276 17.9984 16.8367 17.9283 16.8605C17.8582 16.8844 17.7937 16.9225 17.7391 16.9726L15.4243 19.0627C15.1289 19.3287 14.9226 19.6792 14.8336 20.0667L13.5647 25.5529C13.5088 25.7871 13.5354 26.0334 13.64 26.2503C13.9672 26.9134 14.948 27.359 16.0805 27.359C17.5141 27.359 18.6371 26.6583 18.6371 25.7639C18.6371 25.7607 18.637 25.7574 18.6369 25.7542C18.637 25.7522 18.637 25.7502 18.637 25.7482L18.6513 24.6134C18.6538 24.4462 18.6997 24.2825 18.7845 24.1385C18.8693 23.9944 18.9901 23.8748 19.135 23.7915L23.1326 21.5056C23.6851 21.1897 23.8403 20.715 23.9853 20.1292L24.6538 17.5032C24.6842 17.3881 24.6878 17.2677 24.6643 17.151C24.6408 17.0344 24.5909 16.9247 24.5183 16.8304C24.4457 16.7361 24.3524 16.6598 24.2457 16.6072C24.1389 16.5547 24.0215 16.5273 23.9025 16.5273L23.9026 16.5274ZM24.0716 17.352L23.4019 19.9828C23.2644 20.538 23.1551 20.7998 22.8341 20.9834L18.8364 23.2693C18.6007 23.4048 18.4043 23.5992 18.2664 23.8335C18.1285 24.0678 18.0539 24.3339 18.0498 24.6058L18.0356 25.7407C18.0355 25.7452 18.0356 25.7497 18.0357 25.7542C18.0356 25.7575 18.0355 25.7607 18.0355 25.7639C18.0355 26.2931 17.122 26.7574 16.0805 26.7574C15.083 26.7574 14.3691 26.3684 14.1795 25.9841C14.1363 25.8918 14.1262 25.7874 14.1508 25.6885L15.4197 20.2022C15.4812 19.9348 15.6236 19.6927 15.8275 19.5091L18.0915 17.4649C18.2261 17.655 18.3455 17.923 18.2484 18.206C18.0746 18.7125 17.4175 19.3848 17.1791 19.601C17.1285 19.6468 17.095 19.7084 17.0841 19.7758C17.0731 19.8431 17.0854 19.9122 17.1189 19.9717C17.1524 20.0311 17.2051 20.0774 17.2683 20.103C17.3316 20.1285 17.4017 20.1318 17.4671 20.1122L20.2119 19.2926C20.4009 19.2358 20.574 19.1355 20.7173 18.9998C20.8605 18.8641 20.9701 18.6967 21.0371 18.511L21.2662 17.8704C21.3246 17.7085 21.4195 17.5622 21.5434 17.4428C21.6674 17.3235 21.8172 17.2342 21.9811 17.1819L21.4298 19.2509C21.4229 19.276 21.4106 19.2994 21.3938 19.3193C21.377 19.3393 21.3561 19.3554 21.3325 19.3665L20.5337 19.7437C20.4616 19.7778 20.406 19.8391 20.379 19.9142C20.3521 19.9893 20.3561 20.072 20.3902 20.1442C20.4242 20.2163 20.4856 20.272 20.5607 20.2989C20.6358 20.3258 20.7185 20.3218 20.7906 20.2877L21.5893 19.9105C21.6916 19.8622 21.7823 19.7923 21.8549 19.7055C21.9276 19.6188 21.9807 19.5174 22.0104 19.4082L22.6178 17.1289H23.1026L22.2588 19.9951C22.2516 20.019 22.2396 20.0411 22.2234 20.0602C22.2073 20.0792 22.1875 20.0947 22.1651 20.1057L21.3367 20.5128C21.3012 20.5302 21.2696 20.5545 21.2435 20.5841C21.2174 20.6138 21.1974 20.6483 21.1846 20.6857C21.1719 20.7231 21.1666 20.7626 21.1692 20.802C21.1717 20.8415 21.182 20.88 21.1994 20.9154C21.2168 20.9509 21.241 20.9826 21.2707 21.0087C21.3004 21.0347 21.3349 21.0547 21.3723 21.0675C21.4096 21.0802 21.4492 21.0855 21.4886 21.083C21.528 21.0804 21.5665 21.0702 21.602 21.0528L22.4304 20.6456C22.5272 20.5979 22.6131 20.5307 22.6828 20.4482C22.7524 20.3658 22.8044 20.2699 22.8354 20.1665L23.7142 17.1815C23.7192 17.1643 23.7226 17.1467 23.7245 17.1289H23.9026C23.9297 17.1289 23.9565 17.1352 23.9808 17.1473C24.005 17.1593 24.0262 17.1769 24.0426 17.1985C24.0589 17.2201 24.0701 17.2452 24.0751 17.2719C24.0802 17.2985 24.079 17.326 24.0716 17.3521L24.0716 17.352Z" fill="#01A299"/>
<path d="M20.4434 6.39623C20.7669 6.39623 21.0831 6.30032 21.352 6.12063C21.621 5.94094 21.8306 5.68553 21.9544 5.3867C22.0781 5.08787 22.1105 4.75905 22.0474 4.44182C21.9843 4.12459 21.8286 3.83319 21.5999 3.60448C21.3711 3.37577 21.0797 3.22001 20.7625 3.15691C20.4453 3.09381 20.1165 3.1262 19.8176 3.24998C19.5188 3.37376 19.2634 3.58337 19.0837 3.85231C18.904 4.12125 18.8081 4.43744 18.8081 4.76089C18.8086 5.19445 18.9811 5.61012 19.2876 5.9167C19.5942 6.22328 20.0099 6.39573 20.4434 6.39623ZM20.4434 3.78174C20.6371 3.78174 20.8264 3.83916 20.9874 3.94674C21.1484 4.05432 21.2739 4.20724 21.3481 4.38615C21.4222 4.56506 21.4416 4.76192 21.4038 4.95186C21.366 5.14179 21.2728 5.31625 21.1358 5.45319C20.9989 5.59012 20.8244 5.68338 20.6345 5.72116C20.4446 5.75895 20.2477 5.73956 20.0688 5.66546C19.8899 5.59136 19.737 5.46587 19.6294 5.30485C19.5218 5.14384 19.4644 4.95454 19.4644 4.76089C19.4646 4.5013 19.5679 4.25243 19.7514 4.06887C19.935 3.8853 20.1839 3.78205 20.4434 3.78174Z" fill="#01A299"/>
<path d="M25.7998 6.14404C25.7128 6.14404 25.6293 6.17861 25.5678 6.24015C25.5062 6.30168 25.4717 6.38514 25.4717 6.47217V7.06491C25.4717 7.15194 25.5062 7.2354 25.5678 7.29693C25.6293 7.35847 25.7128 7.39304 25.7998 7.39304C25.8868 7.39304 25.9703 7.35847 26.0318 7.29693C26.0934 7.2354 26.1279 7.15194 26.1279 7.06491V6.47217C26.1279 6.38514 26.0934 6.30168 26.0318 6.24015C25.9703 6.17861 25.8868 6.14404 25.7998 6.14404Z" fill="#01A299"/>
<path d="M6.6505 15.5757H19.4096C19.7646 15.5753 20.1049 15.4341 20.3559 15.1831C20.607 14.9321 20.7482 14.5917 20.7486 14.2367V11.1522L20.7373 8.89429H20.8784C20.9803 8.89474 21.0793 8.86025 21.1589 8.79655C21.2384 8.73286 21.2937 8.64383 21.3156 8.54429L21.5197 7.63378C21.568 7.61509 21.616 7.59506 21.6639 7.5737L22.4522 8.07323C22.5381 8.12825 22.6402 8.15216 22.7415 8.14097C22.8428 8.12978 22.9373 8.08418 23.009 8.01176L23.6243 7.39647C23.6966 7.32474 23.7422 7.23036 23.7535 7.12907C23.7647 7.02778 23.7408 6.92571 23.6859 6.83988L23.1862 6.0514C23.2075 6.00371 23.2275 5.95566 23.2462 5.90726L24.1568 5.70314C24.2564 5.68128 24.3454 5.62596 24.4091 5.5464C24.4728 5.46685 24.5073 5.36786 24.5068 5.26596V4.39588C24.5073 4.29397 24.4728 4.19498 24.4091 4.11542C24.3454 4.03587 24.2563 3.98055 24.1568 3.9587L23.2463 3.75458C23.2276 3.70625 23.2076 3.6582 23.1862 3.61044L23.6858 2.82197C23.7408 2.73615 23.7647 2.63407 23.7535 2.53276C23.7423 2.43145 23.6967 2.33706 23.6242 2.26533L23.009 1.65009C22.9373 1.5777 22.8429 1.53208 22.7416 1.52086C22.6403 1.50963 22.5382 1.53348 22.4524 1.58841L21.6639 2.08813C21.6162 2.06681 21.5682 2.0468 21.5197 2.0281L21.3156 1.11755C21.2937 1.01802 21.2384 0.928995 21.1589 0.865311C21.0793 0.801627 20.9803 0.767134 20.8784 0.767582H20.0083C19.9064 0.767135 19.8074 0.801632 19.7279 0.865323C19.6483 0.929013 19.593 1.01805 19.5712 1.11758L19.3671 2.02807C19.3187 2.04677 19.2706 2.06679 19.2229 2.08815L18.4343 1.58831C18.3485 1.53343 18.2464 1.50963 18.1451 1.52085C18.0439 1.53208 17.9495 1.57767 17.8778 1.65002L17.2625 2.26531C17.1902 2.33704 17.1446 2.43142 17.1333 2.53271C17.1221 2.634 17.146 2.73607 17.2009 2.8219L17.7006 3.61044C17.6793 3.65813 17.6593 3.70618 17.6406 3.75458L17.0408 3.88903C16.8643 3.22489 16.5086 2.62206 16.0126 2.14647C15.291 1.4407 14.3218 1.04536 13.3125 1.04503H13.2162C12.2643 1.04619 11.348 1.40702 10.6509 2.05524C9.95378 2.70346 9.52739 3.59117 9.45715 4.5405H6.6505C6.2955 4.54089 5.95516 4.6821 5.70414 4.93312C5.45312 5.18414 5.31192 5.52449 5.31152 5.87949V14.2367C5.31192 14.5917 5.45312 14.9321 5.70414 15.1831C5.95516 15.4341 6.2955 15.5753 6.6505 15.5757ZM17.8959 4.36986C17.9709 4.35318 18.0404 4.31736 18.0975 4.26589C18.1546 4.21442 18.1975 4.14905 18.2218 4.07613C18.2547 3.98001 18.2938 3.88613 18.3389 3.79511C18.3729 3.72609 18.3887 3.64952 18.3847 3.57269C18.3808 3.49585 18.3573 3.4213 18.3164 3.35612L17.8445 2.61143L18.2239 2.23198L18.9688 2.70403C19.0338 2.74537 19.1083 2.76916 19.1853 2.77307C19.2622 2.77699 19.3388 2.76089 19.4076 2.72636C19.4986 2.68129 19.5924 2.64222 19.6885 2.6094C19.7615 2.58502 19.8269 2.54218 19.8784 2.48502C19.9299 2.42787 19.9657 2.35836 19.9824 2.28325L20.175 1.42379H20.7117L20.9044 2.2833C20.9211 2.35838 20.9569 2.42786 21.0084 2.485C21.0598 2.54213 21.1252 2.58497 21.1982 2.60934C21.2942 2.64217 21.3881 2.68124 21.4791 2.7263C21.5481 2.76031 21.6247 2.77611 21.7015 2.77219C21.7784 2.76827 21.853 2.74477 21.9182 2.70392L22.6629 2.23197L23.0423 2.61142L22.5705 3.356C22.5296 3.42118 22.506 3.49575 22.5021 3.57261C22.4981 3.64947 22.5139 3.72607 22.5479 3.7951C22.593 3.88612 22.6321 3.97997 22.665 4.07607C22.6894 4.14902 22.7322 4.21442 22.7894 4.26591C22.8465 4.3174 22.916 4.35323 22.9911 4.36991L23.8505 4.56255V5.09928L22.9913 5.29186C22.9162 5.30845 22.8467 5.34423 22.7895 5.39571C22.7323 5.44719 22.6894 5.51261 22.665 5.58559C22.6321 5.6818 22.593 5.77576 22.5478 5.86688C22.5133 5.93574 22.4973 6.01237 22.5013 6.08927C22.5052 6.16618 22.5291 6.24075 22.5704 6.30571L23.0423 7.05035L22.6629 7.42985L21.9184 6.95806C21.8532 6.91714 21.7787 6.89357 21.7018 6.88961C21.6249 6.88565 21.5484 6.90142 21.4793 6.93542C21.3883 6.98047 21.2944 7.01957 21.1983 7.05245C21.1254 7.07682 21.0599 7.11967 21.0084 7.17682C20.9569 7.23398 20.9211 7.30349 20.9044 7.3786L20.7117 8.23806H20.175L19.9824 7.37854C19.9657 7.30346 19.9299 7.23398 19.8784 7.17684C19.8269 7.11971 19.7616 7.07687 19.6886 7.0525C19.5925 7.01963 19.4987 6.98054 19.4076 6.93546C19.3386 6.90143 19.2621 6.88563 19.1852 6.88955C19.1084 6.89347 19.0338 6.917 18.9686 6.95789L18.2239 7.42984L17.8445 7.05033L18.3164 6.30565C18.3578 6.24066 18.3816 6.16605 18.3855 6.08911C18.3895 6.01217 18.3734 5.93552 18.3388 5.86665C18.2938 5.77565 18.2547 5.68182 18.2218 5.58574C18.1974 5.51278 18.1546 5.44737 18.0974 5.39588C18.0403 5.34439 17.9708 5.30857 17.8957 5.2919L17.0362 5.09927V4.56255L17.8959 4.36986ZM11.175 4.40367C11.3419 3.39297 12.1432 2.73994 13.2162 2.73994H13.3125C14.3855 2.73994 15.1867 3.39299 15.3536 4.40369C15.3563 4.42058 15.3553 4.43784 15.3507 4.4543C15.3461 4.47076 15.338 4.48603 15.3269 4.49904C15.3158 4.51204 15.302 4.52249 15.2865 4.52965C15.271 4.53681 15.2541 4.54052 15.237 4.54052H11.2917C11.2746 4.54052 11.2577 4.53681 11.2422 4.52965C11.2266 4.52249 11.2129 4.51204 11.2018 4.49904C11.1907 4.48603 11.1825 4.47076 11.1779 4.4543C11.1733 4.43784 11.1723 4.42058 11.175 4.40369L11.175 4.40367ZM13.0847 6.47377C13.7759 6.47377 14.4516 6.67874 15.0264 7.06277C15.6011 7.4468 16.0491 7.99263 16.3136 8.63124C16.5781 9.26986 16.6473 9.97257 16.5125 10.6505C16.3776 11.3285 16.0448 11.9512 15.556 12.44C15.0672 12.9287 14.4445 13.2616 13.7665 13.3965C13.0886 13.5313 12.3859 13.4621 11.7473 13.1976C11.1086 12.9331 10.5628 12.4851 10.1788 11.9104C9.79476 11.3356 9.58979 10.6599 9.58979 9.96868C9.58979 9.50972 9.68019 9.05526 9.85582 8.63123C10.0315 8.20721 10.2889 7.82193 10.6134 7.4974C10.938 7.17287 11.3232 6.91543 11.7473 6.7398C12.1713 6.56416 12.6258 6.47377 13.0847 6.47377H13.0847Z" fill="#01A299"/>
<path d="M11.389 10.8788H12.1747V11.6645C12.1749 11.7956 12.227 11.9213 12.3197 12.014C12.4124 12.1067 12.5381 12.1588 12.6692 12.159H13.5003C13.6314 12.1588 13.7571 12.1067 13.8498 12.014C13.9425 11.9213 13.9946 11.7956 13.9948 11.6645V10.8788H14.7805C14.9116 10.8786 15.0373 10.8265 15.13 10.7338C15.2227 10.6411 15.2748 10.5154 15.275 10.3843V9.55318C15.2748 9.4221 15.2227 9.29642 15.13 9.20373C15.0373 9.11104 14.9116 9.0589 14.7805 9.05875H13.9948V8.27299C13.9946 8.14191 13.9425 8.01623 13.8498 7.92354C13.7571 7.83085 13.6314 7.77871 13.5003 7.77856H12.6692C12.5381 7.77871 12.4124 7.83085 12.3197 7.92354C12.227 8.01623 12.1749 8.14191 12.1748 8.27299V9.05875H11.389C11.2579 9.0589 11.1322 9.11104 11.0395 9.20373C10.9468 9.29642 10.8947 9.4221 10.8945 9.55318V10.3843C10.8947 10.5154 10.9468 10.6411 11.0395 10.7338C11.1322 10.8265 11.2579 10.8786 11.389 10.8788ZM11.5508 9.71502H12.3365C12.4676 9.71488 12.5933 9.66274 12.686 9.57005C12.7787 9.47736 12.8308 9.35168 12.831 9.22059V8.43481H13.3385V9.22058C13.3386 9.35166 13.3908 9.47734 13.4835 9.57003C13.5762 9.66272 13.7018 9.71486 13.8329 9.715H14.6187V10.2225H13.833C13.7019 10.2227 13.5762 10.2748 13.4835 10.3675C13.3908 10.4602 13.3387 10.5858 13.3385 10.7169V11.5027H12.831V10.717C12.8309 10.5859 12.7787 10.4602 12.6861 10.3675C12.5934 10.2748 12.4677 10.2227 12.3366 10.2225H11.5508L11.5508 9.71502Z" fill="#01A299"/>
</svg>
