<svg width="55" height="55" viewBox="0 0 55 55" fill="none" xmlns="http://www.w3.org/2000/svg">
<path d="M0.259277 27.25C0.259277 12.3383 12.3476 0.25 27.2593 0.25C42.171 0.25 54.2593 12.3383 54.2593 27.25C54.2593 42.1617 42.171 54.25 27.2593 54.25C12.3476 54.25 0.259277 42.1617 0.259277 27.25Z" fill="#01A299"/>
<g clip-path="url(#clip0_467_304)">
<g clip-path="url(#clip1_467_304)">
<path d="M27.2524 18.4137C22.0212 13.8382 15.3697 17.8583 15.2606 23.3083C15.2328 24.6973 15.6338 26.0502 16.4319 27.2975H21.6048L22.5249 25.764C22.792 25.3187 23.4386 25.3044 23.7209 25.7483L25.6621 28.7988L28.4919 22.825C28.7387 22.3037 29.4742 22.2872 29.7463 22.7926L32.172 27.2975H38.073C42.4444 20.4655 33.8052 12.6825 27.2524 18.4137Z" fill="white"/>
<path d="M31.1334 28.3338L29.1678 24.6834L26.3883 30.5513C26.1519 31.0505 25.4563 31.0939 25.1598 30.6278L23.1457 27.4629L22.6061 28.3622C22.479 28.574 22.2502 28.7036 22.0032 28.7036H17.5444C17.6842 28.8498 16.9393 28.1064 26.7569 37.8732C27.0311 38.146 27.4744 38.1461 27.7486 37.8732C37.4152 28.2567 36.8216 28.8496 36.9611 28.7036H31.7525C31.4938 28.7036 31.2561 28.5616 31.1334 28.3338Z" fill="white"/>
</g>
</g>
<defs>
<clipPath id="clip0_467_304">
<rect width="24" height="24" fill="white" transform="translate(15.2593 15.25)"/>
</clipPath>
<clipPath id="clip1_467_304">
<rect width="24" height="24" fill="white" transform="translate(15.2593 15.25)"/>
</clipPath>
</defs>
</svg>
