<svg width="55" height="55" viewBox="0 0 55 55" fill="none" xmlns="http://www.w3.org/2000/svg">
<path d="M0.259277 27.25C0.259277 12.3383 12.3476 0.25 27.2593 0.25C42.171 0.25 54.2593 12.3383 54.2593 27.25C54.2593 42.1617 42.171 54.25 27.2593 54.25C12.3476 54.25 0.259277 42.1617 0.259277 27.25Z" fill="#01A299"/>
<g clip-path="url(#clip0_467_346)">
<g clip-path="url(#clip1_467_346)">
<path d="M20.0201 39.25H34.4975C35.359 39.25 36.0762 38.5911 36.0762 37.7814V20.2214C36.0762 19.4115 35.359 18.7457 34.4975 18.7457H32.111V20.0865C32.1144 20.3192 31.9308 20.5118 31.6983 20.5196H22.791C22.5538 20.5139 22.3622 20.3237 22.3544 20.0865V18.7457H20.0201C19.1586 18.7457 18.4414 19.4115 18.4414 20.2214V37.7814C18.4414 38.5911 19.1586 39.25 20.0201 39.25ZM23.2414 25.7891C23.2414 25.5586 23.4283 25.3718 23.6588 25.3718H25.7979V23.2326C25.7979 23.0021 25.9848 22.8152 26.2153 22.8152H28.3023C28.5328 22.8152 28.7197 23.0021 28.7197 23.2326V25.3718H30.8588C31.0893 25.3718 31.2762 25.5586 31.2762 25.7891V27.8761C31.2762 28.1066 31.0893 28.2935 30.8588 28.2935H28.7197V30.4326C28.7197 30.6631 28.5328 30.85 28.3023 30.85H26.2153C25.9848 30.85 25.7979 30.6631 25.7979 30.4326V28.2935H23.6588C23.4283 28.2935 23.2414 28.1066 23.2414 27.8761V25.7891ZM23.4114 32.9891H31.1062C31.3369 32.9891 31.5236 33.176 31.5236 33.4065C31.5236 33.637 31.3369 33.8239 31.1062 33.8239H23.4114C23.1807 33.8239 22.994 33.637 22.994 33.4065C22.994 33.176 23.1807 32.9891 23.4114 32.9891ZM21.8462 35.0761H32.6714C32.9021 35.0761 33.0888 35.263 33.0888 35.4935C33.0888 35.724 32.9021 35.9109 32.6714 35.9109H21.8462C21.6155 35.9109 21.4288 35.724 21.4288 35.4935C21.4288 35.263 21.6155 35.0761 21.8462 35.0761Z" fill="white"/>
<path d="M31.2769 16.8674H29.3236C29.1272 16.8672 28.9572 16.73 28.9158 16.5378C28.7544 15.7919 28.046 15.25 27.2312 15.25H27.2261C26.4331 15.2492 25.7403 15.7858 25.5431 16.5537C25.4956 16.7382 25.3293 16.8672 25.1387 16.8674H23.1899V19.6848H31.2769V16.8674Z" fill="white"/>
<path d="M26.6337 27.8761V30.0152H27.8858V27.8761C27.8858 27.6456 28.0727 27.4587 28.3032 27.4587H30.4424V26.2065H28.3032C28.0727 26.2065 27.8858 26.0196 27.8858 25.7891V23.65H26.6337V25.7891C26.6337 26.0196 26.4468 26.2065 26.2163 26.2065H24.0771V27.4587H26.2163C26.4468 27.4587 26.6337 27.6456 26.6337 27.8761Z" fill="white"/>
</g>
</g>
<defs>
<clipPath id="clip0_467_346">
<rect width="24" height="24" fill="white" transform="translate(15.2593 15.25)"/>
</clipPath>
<clipPath id="clip1_467_346">
<rect width="24" height="24" fill="white" transform="translate(15.2593 15.25)"/>
</clipPath>
</defs>
</svg>
