<svg width="55" height="55" viewBox="0 0 55 55" fill="none" xmlns="http://www.w3.org/2000/svg">
<path d="M0.259277 27.25C0.259277 12.3383 12.3476 0.25 27.2593 0.25C42.171 0.25 54.2593 12.3383 54.2593 27.25C54.2593 42.1617 42.171 54.25 27.2593 54.25C12.3476 54.25 0.259277 42.1617 0.259277 27.25Z" fill="#01A299"/>
<g clip-path="url(#clip0_467_2)">
<g clip-path="url(#clip1_467_2)">
<path d="M22.9468 30.6913V32.875C22.9468 36.3645 25.7854 39.25 29.2749 39.25C32.7644 39.25 35.603 36.3645 35.603 32.875V32.1007C37.2057 31.774 38.4155 30.3539 38.4155 28.6562C38.4155 26.7178 36.8383 25.1406 34.8999 25.1406C32.9615 25.1406 31.3843 26.7178 31.3843 28.6562C31.3843 30.3539 32.5941 31.774 34.1968 32.1007V32.875C34.1968 35.5886 31.9886 37.8438 29.2749 37.8438C26.5613 37.8438 24.353 35.5886 24.353 32.875V30.6922C27.2226 30.1658 30.5343 26.6026 31.1076 23.2132C31.4835 20.9869 30.5546 19.2047 28.5718 18.3133V17.3594C28.5718 16.1962 27.6256 15.25 26.4624 15.25C25.2993 15.25 24.353 16.1962 24.353 17.3594C24.353 18.5225 25.2993 19.4688 26.4624 19.4688H27.7107C29.3286 20.0678 30.0086 21.2768 29.7206 22.9791C29.2269 25.9007 25.9364 29.3594 23.6499 29.3594C21.089 29.3594 17.5296 25.2926 17.508 22.2812C17.4984 20.939 18.2017 19.9765 19.5702 19.4688H20.8374C22.0006 19.4688 22.9468 18.5225 22.9468 17.3594C22.9468 16.1962 22.0006 15.25 20.8374 15.25C19.6742 15.25 18.728 16.1962 18.728 17.3594V18.3055C17.0366 19.0629 16.0994 20.4822 16.103 22.2812C16.1102 25.8069 19.7631 30.1015 22.9468 30.6913ZM34.1968 27.9531H35.603V29.3594H34.1968V27.9531Z" fill="white"/>
</g>
</g>
<defs>
<clipPath id="clip0_467_2">
<rect width="24" height="24" fill="white" transform="translate(15.2593 15.25)"/>
</clipPath>
<clipPath id="clip1_467_2">
<rect width="24" height="24" fill="white" transform="translate(15.2593 15.25)"/>
</clipPath>
</defs>
</svg>
