<svg width="14" height="12" viewBox="0 0 14 12" fill="none" xmlns="http://www.w3.org/2000/svg">
<path d="M13.2892 1.42545C12.8005 1.65977 12.2687 1.82841 11.7209 1.89409C12.2896 1.51853 12.7155 0.925213 12.9187 0.225451C12.385 0.578331 11.8003 0.825776 11.1907 0.956811C10.9358 0.654018 10.6276 0.4128 10.2853 0.248186C9.94292 0.0835725 9.57373 -0.000908491 9.20071 7.36757e-06C7.69148 7.36757e-06 6.47771 1.35977 6.47771 3.02841C6.47771 3.26273 6.50326 3.49705 6.54479 3.72249C4.28493 3.59113 2.26943 2.39113 0.929494 0.553853C0.685342 1.01737 0.557399 1.54514 0.558974 2.08225C0.558974 3.13314 1.03969 4.05977 1.77275 4.60474C1.34075 4.58583 0.918862 4.45385 0.541406 4.21953V4.25681C0.541406 5.72841 1.47729 6.94793 2.7246 7.22841C2.4904 7.29602 2.24948 7.33061 2.00752 7.33136C1.83024 7.33136 1.66255 7.31184 1.49326 7.28521C1.83823 8.48521 2.84278 9.35681 4.03899 9.38521C3.1031 10.2 1.93086 10.6793 0.657992 10.6793C0.429611 10.6793 0.218798 10.6704 0 10.642C1.20738 11.503 2.63995 12 4.18272 12C9.19113 12 11.9317 7.38817 11.9317 3.38521C11.9317 3.25385 11.9317 3.12249 11.9237 2.99113C12.4539 2.55977 12.9187 2.02545 13.2892 1.42545Z" fill="white"/>
</svg>
