<svg width="14" height="10" viewBox="0 0 14 10" fill="none" xmlns="http://www.w3.org/2000/svg">
<path d="M11.2502 0.829529C10.3885 0.439129 9.47918 0.160494 8.54501 0.000569545C8.53655 -0.000837589 8.52785 0.000377705 8.52012 0.00404837C8.51238 0.00771903 8.50599 0.0136648 8.50182 0.021068C8.38471 0.226053 8.25514 0.494173 8.16461 0.704078C7.15764 0.553216 6.13337 0.553216 5.1264 0.704078C5.02541 0.470248 4.91117 0.242217 4.7842 0.021068C4.77994 0.0137459 4.77354 0.00786861 4.76583 0.00420974C4.75812 0.000550877 4.74947 -0.000718153 4.74101 0.000569545C3.80663 0.159638 2.89716 0.438418 2.03586 0.829529C2.02849 0.832306 2.02232 0.837522 2.01842 0.844288C0.295822 3.38528 -0.17677 5.86396 0.0549577 8.31148C0.0557882 8.32296 0.0632633 8.33444 0.0723996 8.34182C1.0755 9.07535 2.19748 9.63541 3.39051 9.9981C3.39894 10.0007 3.40799 10.0006 3.41635 9.99783C3.42472 9.99502 3.43196 9.98966 3.43702 9.98252C3.69284 9.63815 3.92041 9.27491 4.11643 8.89282C4.12051 8.88495 4.12191 8.87599 4.12042 8.86727C4.11892 8.85855 4.11461 8.85054 4.10812 8.84444C4.10383 8.84044 4.09874 8.83737 4.09317 8.83542C3.73533 8.69966 3.38877 8.53654 3.05663 8.34756C3.04735 8.34237 3.04045 8.33386 3.03736 8.32378C3.03426 8.31371 3.03522 8.30285 3.04001 8.29344C3.04284 8.28734 3.04711 8.282 3.05247 8.27787C3.12224 8.22621 3.19201 8.17209 3.25845 8.11798C3.26432 8.11332 3.27137 8.11032 3.27883 8.10931C3.28629 8.1083 3.29389 8.10931 3.30081 8.11224C5.47607 9.09289 7.83072 9.09289 9.9794 8.11224C9.98658 8.10917 9.99446 8.10808 10.0022 8.1091C10.01 8.11011 10.0173 8.11318 10.0234 8.11798C10.0899 8.17209 10.1596 8.22621 10.2294 8.27787C10.2351 8.28194 10.2396 8.28734 10.2426 8.29358C10.2456 8.29981 10.247 8.30669 10.2467 8.31359C10.2464 8.3205 10.2443 8.32722 10.2407 8.33314C10.2371 8.33907 10.2321 8.34402 10.2261 8.34756C9.8947 8.53827 9.54768 8.70119 9.1887 8.83461C9.18297 8.83665 9.17777 8.83992 9.17347 8.84417C9.16916 8.84842 9.16585 8.85355 9.16378 8.8592C9.16186 8.86468 9.16109 8.87049 9.16152 8.87627C9.16195 8.88205 9.16357 8.88768 9.16627 8.89282C9.36561 9.27409 9.59402 9.63815 9.84485 9.98252C9.84991 9.98966 9.85715 9.99502 9.86552 9.99783C9.87388 10.0006 9.88294 10.0007 9.89136 9.9981C11.0864 9.63653 12.2102 9.07641 13.2145 8.34182C13.2195 8.33838 13.2237 8.33387 13.2267 8.32862C13.2297 8.32337 13.2315 8.31751 13.2319 8.31148C13.5093 5.48187 12.7676 3.02369 11.2668 0.845108C11.2653 0.84151 11.263 0.838264 11.2601 0.835581C11.2573 0.832897 11.2539 0.830836 11.2502 0.829529ZM4.44118 6.82083C3.78586 6.82083 3.24683 6.2272 3.24683 5.49909C3.24683 4.77016 3.7759 4.17652 4.44118 4.17652C5.11145 4.17652 5.6455 4.77508 5.63553 5.49909C5.63553 6.2272 5.10646 6.82083 4.44118 6.82083ZM8.85647 6.82083C8.20199 6.82083 7.66212 6.2272 7.66212 5.49909C7.66212 4.77016 8.19119 4.17652 8.85647 4.17652C9.52674 4.17652 10.0616 4.77508 10.0508 5.49909C10.0508 6.2272 9.52674 6.82083 8.85647 6.82083Z" fill="white"/>
</svg>
