<svg width="14" height="15" viewBox="0 0 14 15" fill="none" xmlns="http://www.w3.org/2000/svg">
<path fill-rule="evenodd" clip-rule="evenodd" d="M3.90521 0.045C4.61377 0.00818181 4.83969 0 6.6446 0C8.44952 0 8.67544 0.00886363 9.38339 0.045C10.0913 0.0811364 10.5746 0.208636 10.9974 0.393409C11.4402 0.582273 11.8419 0.8775 12.1741 1.25932C12.5124 1.63364 12.7733 2.08636 12.9401 2.58682C13.1044 3.06409 13.2167 3.60955 13.2493 4.40727C13.282 5.20841 13.2892 5.46341 13.2892 7.5C13.2892 9.53727 13.2814 9.79227 13.2493 10.592C13.2173 11.3898 13.1044 11.9352 12.9401 12.4125C12.7733 12.913 12.512 13.3665 12.1741 13.7414C11.8419 14.1232 11.4402 14.4177 10.9974 14.6059C10.5746 14.7914 10.0913 14.9182 9.38459 14.955C8.67544 14.9918 8.44952 15 6.6446 15C4.83969 15 4.61377 14.9911 3.90521 14.955C3.19847 14.9189 2.71523 14.7914 2.29239 14.6059C1.84896 14.4177 1.44721 14.1227 1.11509 13.7414C0.777044 13.3668 0.515449 12.9136 0.34854 12.4132C0.184841 11.9359 0.0724866 11.3905 0.0398676 10.5927C0.00724865 9.79159 0 9.53659 0 7.5C0 5.46273 0.0078527 5.20773 0.0398676 4.40864C0.0718825 3.60955 0.184841 3.06409 0.34854 2.58682C0.515695 2.08642 0.77749 1.63317 1.11569 1.25864C1.44734 0.87716 1.84869 0.581893 2.29178 0.393409C2.71462 0.208636 3.19787 0.0818182 3.90461 0.045H3.90521ZM9.32963 1.395C8.62892 1.35886 8.41871 1.35136 6.6446 1.35136C4.87049 1.35136 4.66028 1.35886 3.95958 1.395C3.31143 1.42841 2.95987 1.55045 2.7255 1.65341C2.41562 1.78977 2.19393 1.95136 1.96137 2.21386C1.74091 2.45594 1.57126 2.75065 1.46483 3.07636C1.37362 3.34091 1.26549 3.73773 1.2359 4.46932C1.20388 5.26023 1.19724 5.4975 1.19724 7.5C1.19724 9.5025 1.20388 9.73977 1.2359 10.5307C1.26549 11.2623 1.37362 11.6591 1.46483 11.9236C1.57115 12.2489 1.74089 12.5441 1.96137 12.7861C2.17581 13.035 2.43736 13.2266 2.7255 13.3466C2.95987 13.4495 3.31143 13.5716 3.95958 13.605C4.66028 13.6411 4.86989 13.6486 6.6446 13.6486C8.41932 13.6486 8.62892 13.6411 9.32963 13.605C9.97778 13.5716 10.3293 13.4495 10.5637 13.3466C10.8736 13.2102 11.0953 13.0486 11.3278 12.7861C11.5483 12.5441 11.7181 12.2489 11.8244 11.9236C11.9156 11.6591 12.0237 11.2623 12.0533 10.5307C12.0853 9.73977 12.092 9.5025 12.092 7.5C12.092 5.4975 12.0853 5.26023 12.0533 4.46932C12.0237 3.73773 11.9156 3.34091 11.8244 3.07636C11.7036 2.72659 11.5604 2.47636 11.3278 2.21386C11.1134 1.96505 10.8523 1.77355 10.5637 1.65341C10.3293 1.55045 9.97778 1.42841 9.32963 1.395ZM5.79591 9.81205C6.26988 10.0347 6.79766 10.0648 7.28909 9.89708C7.78052 9.72936 8.20511 9.37426 8.49036 8.89244C8.7756 8.41062 8.9038 7.83196 8.85306 7.2553C8.80231 6.67864 8.57577 6.13975 8.21212 5.73068C7.98031 5.46919 7.70002 5.26896 7.39142 5.14442C7.08282 5.01987 6.75359 4.97411 6.42744 5.01042C6.10129 5.04673 5.78633 5.16421 5.50524 5.35441C5.22414 5.5446 4.9839 5.80278 4.80181 6.11035C4.61973 6.41793 4.50032 6.76724 4.4522 7.13316C4.40407 7.49907 4.42842 7.87247 4.52349 8.22649C4.61856 8.5805 4.78199 8.90633 5.00201 9.18049C5.22203 9.45466 5.49317 9.67035 5.79591 9.81205ZM4.22959 4.77409C4.54674 4.41612 4.92324 4.13216 5.33761 3.93843C5.75198 3.7447 6.19609 3.64498 6.6446 3.64498C7.09311 3.64498 7.53723 3.7447 7.9516 3.93843C8.36597 4.13216 8.74247 4.41612 9.05961 4.77409C9.37676 5.13206 9.62833 5.55704 9.79997 6.02475C9.9716 6.49246 10.0599 6.99375 10.0599 7.5C10.0599 8.00625 9.9716 8.50754 9.79997 8.97525C9.62833 9.44296 9.37676 9.86794 9.05961 10.2259C8.41911 10.9489 7.55041 11.355 6.6446 11.355C5.7388 11.355 4.87009 10.9489 4.22959 10.2259C3.58909 9.50295 3.22926 8.52241 3.22926 7.5C3.22926 6.47759 3.58909 5.49705 4.22959 4.77409ZM10.8174 4.21909C10.896 4.13541 10.9589 4.03478 11.0024 3.92316C11.046 3.81155 11.0692 3.69121 11.0708 3.56927C11.0723 3.44734 11.0522 3.32628 11.0116 3.21328C10.971 3.10028 10.9107 2.99762 10.8343 2.91139C10.7579 2.82516 10.667 2.75711 10.5668 2.71126C10.4667 2.66542 10.3595 2.64271 10.2515 2.64449C10.1434 2.64627 10.0368 2.67249 9.93793 2.72161C9.83904 2.77073 9.74989 2.84175 9.67575 2.93045C9.53157 3.10297 9.45263 3.33213 9.45569 3.56927C9.45876 3.80641 9.54358 4.03287 9.69215 4.20057C9.84073 4.36828 10.0414 4.46402 10.2515 4.46748C10.4616 4.47093 10.6646 4.38183 10.8174 4.21909Z" fill="black"/>
</svg>
