<svg width="26" height="26" viewBox="0 0 26 26" fill="none" xmlns="http://www.w3.org/2000/svg">
<g clip-path="url(#clip0_1_247)">
<path d="M12.9998 2.16675C15.9433 2.16675 16.3105 2.17758 17.4653 2.23175C18.6191 2.28591 19.4045 2.46683 20.0957 2.7355C20.8107 3.01066 21.413 3.38333 22.0153 3.98458C22.5662 4.52614 22.9925 5.18122 23.2644 5.90425C23.532 6.59433 23.714 7.38083 23.7682 8.53458C23.8191 9.68941 23.8332 10.0567 23.8332 13.0001C23.8332 15.9435 23.8223 16.3107 23.7682 17.4656C23.714 18.6193 23.532 19.4047 23.2644 20.0959C22.9932 20.8193 22.5669 21.4746 22.0153 22.0156C21.4736 22.5663 20.8186 22.9925 20.0957 23.2647C19.4056 23.5322 18.6191 23.7142 17.4653 23.7684C16.3105 23.8193 15.9433 23.8334 12.9998 23.8334C10.0564 23.8334 9.68917 23.8226 8.53434 23.7684C7.38059 23.7142 6.59517 23.5322 5.904 23.2647C5.18069 22.9933 4.52549 22.5669 3.98434 22.0156C3.43336 21.4741 3.0071 20.819 2.73525 20.0959C2.46659 19.4058 2.28567 18.6193 2.2315 17.4656C2.18059 16.3107 2.1665 15.9435 2.1665 13.0001C2.1665 10.0567 2.17734 9.68941 2.2315 8.53458C2.28567 7.37975 2.46659 6.59541 2.73525 5.90425C3.00634 5.18078 3.43271 4.52551 3.98434 3.98458C4.52565 3.43342 5.1808 3.00712 5.904 2.7355C6.59517 2.46683 7.3795 2.28591 8.53434 2.23175C9.68917 2.18083 10.0564 2.16675 12.9998 2.16675ZM12.9998 7.58341C11.5632 7.58341 10.1855 8.1541 9.16967 9.16992C8.15385 10.1857 7.58317 11.5635 7.58317 13.0001C7.58317 14.4367 8.15385 15.8144 9.16967 16.8302C10.1855 17.8461 11.5632 18.4167 12.9998 18.4167C14.4364 18.4167 15.8142 17.8461 16.83 16.8302C17.8458 15.8144 18.4165 14.4367 18.4165 13.0001C18.4165 11.5635 17.8458 10.1857 16.83 9.16992C15.8142 8.1541 14.4364 7.58341 12.9998 7.58341ZM20.0415 7.31258C20.0415 6.95343 19.8988 6.609 19.6449 6.35504C19.3909 6.10109 19.0465 5.95841 18.6873 5.95841C18.3282 5.95841 17.9838 6.10109 17.7298 6.35504C17.4758 6.609 17.3332 6.95343 17.3332 7.31258C17.3332 7.67173 17.4758 8.01617 17.7298 8.27012C17.9838 8.52408 18.3282 8.66675 18.6873 8.66675C19.0465 8.66675 19.3909 8.52408 19.6449 8.27012C19.8988 8.01617 20.0415 7.67173 20.0415 7.31258ZM12.9998 9.75008C13.8618 9.75008 14.6884 10.0925 15.2979 10.702C15.9074 11.3115 16.2498 12.1381 16.2498 13.0001C16.2498 13.862 15.9074 14.6887 15.2979 15.2982C14.6884 15.9077 13.8618 16.2501 12.9998 16.2501C12.1379 16.2501 11.3112 15.9077 10.7017 15.2982C10.0922 14.6887 9.74984 13.862 9.74984 13.0001C9.74984 12.1381 10.0922 11.3115 10.7017 10.702C11.3112 10.0925 12.1379 9.75008 12.9998 9.75008Z" fill="white" fill-opacity="0.61"/>
</g>
<defs>
<clipPath id="clip0_1_247">
<rect width="26" height="26" fill="white"/>
</clipPath>
</defs>
</svg>
